<svg width="25" height="24" viewBox="0 0 25 24" fill="none" xmlns="http://www.w3.org/2000/svg">
<g clip-path="url(#clip0_35748_632)">
<path fill="#54adff" style="fill: var(--color1, #54adff)" d="M15.361 14.362c-0.267-1.983-1.509-3.672-3.322-4.518s-3.906-0.711-5.596 0.359l-4.074 2.58c-0.676 0.428-1.185 1.049-1.473 1.795s-0.327 1.549-0.113 2.32c0.214 0.771 0.662 1.438 1.293 1.93s1.389 0.76 2.189 0.778l0.052 0.001c2.007 0.059 3.914 0.956 5.24 2.467 0.342 0.39 0.753 0.698 1.212 0.912 0.25 0.117 0.515 0.205 0.79 0.265 0.782 0.168 1.581 0.082 2.31-0.249s1.318-0.877 1.705-1.577c0.387-0.701 0.535-1.49 0.429-2.283l-0.643-4.779zM13.287 21.721c-0.927 0.422-2.001 0.191-2.672-0.575-0.798-0.91-1.773-1.633-2.851-2.136s-2.257-0.784-3.466-0.811l-0.034-0.001c-1.004-0.036-1.855-0.707-2.125-1.677-0.272-0.981 0.123-2.006 0.983-2.55l4.074-2.58c1.284-0.813 2.872-0.915 4.249-0.273s2.32 1.924 2.523 3.43l0.643 4.779c0.136 1.009-0.396 1.971-1.323 2.392z"></path>
<path fill="#54adff" style="fill: var(--color1, #54adff)" d="M4.721 9.395c0.827 0.058 1.624-0.259 2.243-0.892 0.589-0.602 0.948-1.426 1.009-2.318s-0.181-1.757-0.682-2.434c-0.526-0.712-1.272-1.136-2.098-1.192-1.662-0.115-3.121 1.325-3.252 3.211-0.103 1.502 0.667 2.84 1.825 3.379 0.296 0.138 0.616 0.224 0.954 0.247zM3.346 5.866c0.077-1.111 0.863-1.966 1.752-1.904 0.161 0.011 0.317 0.052 0.463 0.121 0.227 0.106 0.432 0.277 0.6 0.505 0.303 0.409 0.448 0.943 0.41 1.501s-0.256 1.067-0.612 1.431c-0.326 0.333-0.731 0.501-1.14 0.473l-0.001 0c-0.888-0.061-1.548-1.015-1.472-2.126z"></path>
<path fill="#54adff" style="fill: var(--color1, #54adff)" d="M10.641 8.647c1.762 0.822 3.957-0.143 4.892-2.15s0.264-4.309-1.497-5.131c-1.762-0.821-3.956 0.144-4.893 2.151s-0.264 4.308 1.497 5.13zM13.442 2.641c1.059 0.494 1.425 1.957 0.817 3.261s-1.964 1.963-3.023 1.47-1.425-1.956-0.817-3.26c0.608-1.305 1.964-1.964 3.023-1.471z"></path>
<path fill="#54adff" style="fill: var(--color1, #54adff)" d="M15.744 12.114l0 0c0.229 0.216 0.486 0.388 0.761 0.517 1.285 0.599 2.973 0.248 4.121-0.966 0.661-0.699 1.051-1.582 1.098-2.487 0.049-0.947-0.279-1.803-0.923-2.412s-1.518-0.888-2.461-0.786c-0.9 0.098-1.76 0.537-2.421 1.236-1.394 1.475-1.472 3.672-0.175 4.898zM16.941 8.182c0.431-0.457 0.982-0.742 1.55-0.804 0.526-0.057 1.003 0.088 1.343 0.409s0.511 0.789 0.484 1.317c-0.030 0.571-0.283 1.137-0.715 1.593-0.861 0.911-2.159 1.088-2.893 0.394s-0.63-1.999 0.231-2.91z"></path>
<path fill="#54adff" style="fill: var(--color1, #54adff)" d="M22.67 14.827l-0-0.001c-0.796-1.464-2.795-1.922-4.455-1.021-1.66 0.902-2.364 2.827-1.569 4.291 0.29 0.534 0.739 0.934 1.274 1.184 0.933 0.435 2.125 0.411 3.181-0.162 1.66-0.902 2.364-2.827 1.569-4.291zM20.429 17.882c-0.98 0.531-2.123 0.327-2.548-0.457s0.026-1.852 1.004-2.384c0.65-0.353 1.372-0.381 1.909-0.13 0.271 0.127 0.496 0.324 0.639 0.588 0.424 0.783-0.027 1.852-1.004 2.383z"></path>
</g>
<defs>
<clipPath id="clip0_35748_632">
<rect width="24" height="24" fill="white" transform="translate(0.5)"/>
</clipPath>
</defs>
</svg>
